<?xml version="1.0" encoding="UTF-8" standalone="no"?><!--Created with Inkscape (http://www.inkscape.org/)--><svg xmlns:dc="http://purl.org/dc/elements/1.1/" xmlns:cc="http://creativecommons.org/ns#" xmlns:rdf="http://www.w3.org/1999/02/22-rdf-syntax-ns#" xmlns:svg="http://www.w3.org/2000/svg" xmlns="http://www.w3.org/2000/svg" version="1.1" width="303" height="433" id="svg2" style="display:inline"><defs id="defs4"/><metadata id="metadata7"><rdf:RDF><cc:Work rdf:about=""><dc:format>image/svg+xml</dc:format><dc:type rdf:resource="http://purl.org/dc/dcmitype/StillImage"/><dc:title/></cc:Work></rdf:RDF></metadata><g transform="translate(-100.64286,-249.43361)" id="layer1" style="display:inline"><path d="M 277.28687,303.03756 C 283.76854,292.03314 296.6316,164.27482 258.3759,113.67267 237.43619,85.974988 203.6736,70.340015 161.47321,75.455359 l 62.8125,241.116071 c 0,0 23.85811,-2.45577 35.29468,-5.8316 6.17308,-1.82215 16.12109,-5.01063 17.70648,-7.70227 z" transform="translate(100.64286,249.43361)" id="path3850" style="fill:#2b8dbf;fill-opacity:1;stroke:#cccccc;stroke-width:1px;stroke-linecap:butt;stroke-linejoin:miter;stroke-opacity:1"/><path d="m 374.44904,594.04526 -2.77093,-6.39523" id="path4149" style="fill:none;stroke:#000000;stroke-width:1.79999995;stroke-linecap:butt;stroke-linejoin:miter;stroke-miterlimit:4;stroke-opacity:1;stroke-dasharray:none"/><path d="m 271.48549,338.21642 c -23.70651,7.40744 -58.59966,6.76051 -84.78906,-9.32356 -5.48453,-32.91643 -10.26093,-58.53102 -12.0771,-90.0868 -1.68955,-29.35597 -0.71626,-63.39443 4.53116,-113.69588 z" transform="translate(100.64286,249.43361)" id="path3846" style="fill:#feedc5;fill-opacity:1;stroke:#cccccc;stroke-width:1px;stroke-linecap:butt;stroke-linejoin:miter;stroke-opacity:1"/><path d="m 286.17857,589.26396 -27.76786,-13.97321 -0.80357,1.11607 28.51063,14.45576" id="path4565" style="fill:none;stroke:#d8000b;stroke-width:1px;stroke-linecap:butt;stroke-linejoin:miter;stroke-opacity:0.9372549"/><path d="M 52.321429,318.17857 C 69.692086,210.47083 110.23883,106.90168 145.3357,2.3593421 L 182.5,321.125 z" transform="translate(100.64286,249.43361)" id="path4524" style="fill:#ffffcc;fill-opacity:1;stroke:#cccccc;stroke-width:1;stroke-linecap:butt;stroke-linejoin:round;stroke-miterlimit:4;stroke-opacity:0.9372549;stroke-dasharray:none"/><g id="g3878" style="stroke:#6b6b6b;stroke-opacity:1"><path d="M 264.9971,323.24143 185.11045,322.5898" transform="translate(100.64286,249.43361)" id="path3868" style="fill:none;stroke:#6b6b6b;stroke-width:1px;stroke-linecap:butt;stroke-linejoin:miter;stroke-opacity:1"/><path d="m 248.20268,284.48043 -69.10634,-2.4254" transform="translate(100.64286,249.43361)" id="path3870" style="fill:none;stroke:#6b6b6b;stroke-width:1px;stroke-linecap:butt;stroke-linejoin:miter;stroke-opacity:1"/><path d="m 231.24061,245.33251 -56.39713,-2.88693" transform="translate(100.64286,249.43361)" id="path3872" style="fill:none;stroke:#6b6b6b;stroke-width:1px;stroke-linecap:butt;stroke-linejoin:miter;stroke-opacity:1"/><path d="m 214.27854,206.18459 -40.34603,-3.34241" transform="translate(100.64286,249.43361)" id="path3874" style="fill:none;stroke:#6b6b6b;stroke-width:1px;stroke-linecap:butt;stroke-linejoin:miter;stroke-opacity:1"/><path d="m 196.64365,165.48383 -20.94297,-1.52316" transform="translate(100.64286,249.43361)" id="path3876" style="fill:none;stroke:#6b6b6b;stroke-width:1px;stroke-linecap:butt;stroke-linejoin:miter;stroke-opacity:1"/></g><path d="m 227.28432,326.93399 24.74873,0 0,11.49049 -24.74873,0 z" transform="translate(100.64286,249.43361)" id="rect4620" style="fill:#cccccc;fill-opacity:1;stroke:none"/><path d="m 303.67411,591.96486 66.82903,2.16977 -68.15935,0.99509 z" id="path3866" style="fill:#fad716;fill-opacity:1;stroke:#353521;stroke-width:1px;stroke-linecap:butt;stroke-linejoin:miter;stroke-opacity:1"/><path d="m 146.37096,345.78491 1.94469,-3.38297 c 20.70835,-2.38728 39.2404,-2.40915 56.65693,-2.47487 l -2.74132,5.76904 z" transform="translate(100.64286,249.43361)" id="path3864" style="fill:#8a3201;fill-opacity:1;stroke:none"/><path d="M 143.8836,1.6175109 29.107143,339.60714" transform="translate(100.64286,249.43361)" id="path3007" style="fill:none;stroke:#000000;stroke-width:1px;stroke-linecap:round;stroke-linejoin:miter;stroke-opacity:1"/><g id="g4546"><path d="M 179.04954,315.38036 61.114229,281.16145" transform="translate(100.64286,249.43361)" id="path4526" style="fill:none;stroke:#cccccc;stroke-width:1px;stroke-linecap:butt;stroke-linejoin:miter;stroke-opacity:1"/><path d="M 173.99878,273.14336 68.690373,242.20744" transform="translate(100.64286,249.43361)" id="path4528" style="fill:none;stroke:#cccccc;stroke-width:1px;stroke-linecap:butt;stroke-linejoin:miter;stroke-opacity:1"/><path d="m 79.549513,203.94791 88.893427,26.1377" transform="translate(100.64286,249.43361)" id="path4530" style="fill:none;stroke:#cccccc;stroke-width:1px;stroke-linecap:butt;stroke-linejoin:miter;stroke-opacity:1"/><path d="M 163.64471,188.92189 91.292536,165.05704" transform="translate(100.64286,249.43361)" id="path4532" style="fill:none;stroke:#cccccc;stroke-width:1px;stroke-linecap:butt;stroke-linejoin:miter;stroke-opacity:1"/><path d="m 103.03556,128.43901 56.82108,18.81409" transform="translate(100.64286,249.43361)" id="path4534" style="fill:none;stroke:#cccccc;stroke-width:1px;stroke-linecap:butt;stroke-linejoin:miter;stroke-opacity:1"/><path d="M 154.93215,102.68012 115.78874,89.926941" transform="translate(100.64286,249.43361)" id="path4536" style="fill:none;stroke:#cccccc;stroke-width:1px;stroke-linecap:butt;stroke-linejoin:miter;stroke-opacity:1"/><path d="M 149.88138,61.200728 128.79445,52.677566" transform="translate(100.64286,249.43361)" id="path4538" style="fill:none;stroke:#cccccc;stroke-width:1px;stroke-linecap:butt;stroke-linejoin:miter;stroke-opacity:1"/></g><path d="m 157.90352,576.32702 -2.16363,-5.52056 2.41494,-0.0314 1.06387,5.21815 z" id="path4589-0" style="fill:#323232;fill-opacity:1;stroke:none"/><path d="m 119.45599,588.40848 -0.0631,2.06084 32.32584,0 15.15228,-0.47038 4e-5,-1.09914 z" id="path4612" style="fill:#8a3201;fill-opacity:1;stroke:none"/><path d="M 46.413871,343.53495 57.5,325.76786 l 71.61839,0.81806 0.34081,19.05731" transform="translate(100.64286,249.43361)" id="path4563" style="fill:none;stroke:#d8000b;stroke-width:1px;stroke-linecap:round;stroke-linejoin:round;stroke-opacity:0.99215686"/><path d="m 158.37054,326.18082 c 0,0.78897 -0.63959,1.42857 -1.42857,1.42857 -0.78898,0 -1.42857,-0.6396 -1.42857,-1.42857 0,-0.78898 0.63959,-1.42857 1.42857,-1.42857 0.78898,0 1.42857,0.63959 1.42857,1.42857 z" transform="matrix(1.34375,0,0,1.34375,17.946759,138.4725)" id="path4569-8" style="fill:#323232;fill-opacity:1;stroke:none"/><path d="m 128.95228,327.91257 1.84796,-4.92078 -2.41494,-0.0314 -1.12701,4.23956 z" transform="translate(100.64286,249.43361)" id="path4589" style="fill:#323232;fill-opacity:1;stroke:none"/><path d="m 256.74738,576.32461 -1.84796,-4.92078 2.41494,-0.0314 1.12701,4.23956 z" id="path4589-5" style="fill:#323232;fill-opacity:1;stroke:none;display:inline"/><path d="M 285.75331,572.02341 149.63526,570.25565" id="path4522" style="fill:none;stroke:#8a3201;stroke-width:3.5999999;stroke-linecap:round;stroke-linejoin:miter;stroke-miterlimit:4;stroke-opacity:1;stroke-dasharray:none"/><path d="m 289.30281,553.26035 -3.95259,0.0316" id="path3826-1" style="fill:none;stroke:#cccccc;stroke-width:1px;stroke-linecap:butt;stroke-linejoin:miter;stroke-opacity:1"/><path d="M 372.76787,589.12603 256.6145,321.04773" id="path3848" style="fill:none;stroke:#000000;stroke-width:1;stroke-linecap:butt;stroke-linejoin:miter;stroke-miterlimit:4;stroke-opacity:1;stroke-dasharray:none"/><g id="g4540"><path d="m 143.8836,1.6175109 5.44536,-0.031567" transform="translate(100.64286,249.43361)" id="path4518" style="fill:#a35826;fill-opacity:1;stroke:#a35826;stroke-width:1px;stroke-linecap:round;stroke-linejoin:miter;stroke-opacity:1"/><path d="M 147.92421,2.3119908 187.21551,340.67725" transform="translate(100.64286,249.43361)" id="path4520" style="fill:#a35826;fill-opacity:1;stroke:#a35826;stroke-width:4;stroke-linecap:round;stroke-linejoin:miter;stroke-miterlimit:4;stroke-opacity:1;stroke-dasharray:none"/></g><path d="m 219.15098,548.93302 21.27278,6.44036 -4.08837,13.50403 -21.27278,-6.44036 z" id="rect4544" style="fill:#cccccc;fill-opacity:1;stroke:none"/><path d="m 139.2876,373.15692 c 0,0 0.0161,50.33034 0.7124,54.66451 0.13512,0.84098 4.94674,3.31586 9.11795,4.30814 2.04392,0.48622 3.81526,0.54395 5.07848,-2.34386 2.00673,-4.58755 11.33885,-56.38342 11.33885,-56.38342 z" transform="translate(100.64286,249.43361)" id="path4557" style="fill:#cccccd;fill-opacity:1;stroke:#000000;stroke-width:1px;stroke-linecap:butt;stroke-linejoin:miter;stroke-opacity:1"/><path d="M 22.946429,357.46429 8.0357143,377.19643 c -2.0175244,2.6699 -1.9009548,8.30678 0.8928572,10.35714 2.5281525,1.85539 7.7491845,1.91364 9.8214285,-0.89286 l 10.329133,-13.96818 c 0.746879,-1.01001 1.286452,-1.99129 1.229085,-3.04906 L 29.642857,357.375 z" transform="translate(100.64286,249.43361)" id="path4616" style="fill:none;stroke:#000000;stroke-width:1px;stroke-linecap:butt;stroke-linejoin:miter;stroke-opacity:1"/><path d="m 25.446428,338.41071 -3.244824,2.44822 0.145047,16.73163 L 30,357.46429 29.23341,342.76387 z" transform="translate(100.64286,249.43361)" id="path4614" style="fill:#9e4a00;fill-opacity:1;stroke:none"/><path d="m 134.29851,611.22085 -0.12887,7.65067 45.20001,-2.23872 z" id="path4618" style="fill:#ff0000;fill-opacity:1;stroke:#000000;stroke-opacity:1"/><path d="m 161.27892,593.51371 0,-2.49891 -21.27168,0 0,1.65258 c 7.04949,0.30118 14.16124,1.08468 21.27168,0.84633 z" id="path3054" style="fill:#fad716;fill-opacity:1;stroke:#353521;stroke-width:1px;stroke-linecap:butt;stroke-linejoin:miter;stroke-opacity:1"/><path d="m 374.89928,594.04526 c -2.46258,7.55124 -9.42505,20.9797 -12.12183,22.22336 -6.89918,3.18165 -88.56142,6.64536 -96.97465,6.56599 l -26.76904,-0.25254 c -8.81581,-0.0832 -89.27223,-9.04928 -108.33886,-11.86929 l -0.81863,-18.5153 c 82.23745,3.99461 163.73044,3.52244 245.02301,1.84778 z" id="path4555" style="fill:#ffffff;fill-opacity:1;stroke:#000000;stroke-width:1px;stroke-linecap:butt;stroke-linejoin:miter;stroke-opacity:1"/><path d="m 100.64286,613.95147 303,0" id="path4561" style="fill:none;stroke:#2b8dbf;stroke-width:1;stroke-linecap:butt;stroke-linejoin:miter;stroke-miterlimit:4;stroke-opacity:1;stroke-dasharray:8, 8;stroke-dashoffset:0"/><path d="m 158.37054,326.18082 c 0,0.78897 -0.63959,1.42857 -1.42857,1.42857 -0.78898,0 -1.42857,-0.6396 -1.42857,-1.42857 0,-0.78898 0.63959,-1.42857 1.42857,-1.42857 0.78898,0 1.42857,0.63959 1.42857,1.42857 z" transform="matrix(1.34375,0,0,1.34375,46.694059,137.30896)" id="path4569" style="fill:#323232;fill-opacity:1;stroke:none"/><path d="m 158.37054,326.18082 c 0,0.78897 -0.63959,1.42857 -1.42857,1.42857 -0.78898,0 -1.42857,-0.6396 -1.42857,-1.42857 0,-0.78898 0.63959,-1.42857 1.42857,-1.42857 0.78898,0 1.42857,0.63959 1.42857,1.42857 z" transform="matrix(1.34375,0,0,1.34375,-52.662719,136.92368)" id="path4569-8-1" style="fill:#323232;fill-opacity:1;stroke:none"/><path d="m 188.65995,303.82674 84.46004,-0.75761" transform="translate(100.64286,249.43361)" id="path3824" style="fill:none;stroke:#8a3201;stroke-width:1px;stroke-linecap:butt;stroke-linejoin:miter;stroke-opacity:1"/><path d="m 377.92973,552.47117 -4.16688,0.0316" id="path3826" style="fill:none;stroke:#cccccc;stroke-width:1px;stroke-linecap:butt;stroke-linejoin:miter;stroke-opacity:1"/><path d="m 263.10828,582.33224 2.9828,-179.675 21.6186,-79.05449 -0.12932,-1.98164 -37.60854,-70.60156 31.36214,331.55109" id="path3860" style="fill:none;stroke:#000000;stroke-width:0.80000001;stroke-linecap:butt;stroke-linejoin:miter;stroke-miterlimit:4;stroke-opacity:1;stroke-dasharray:none"/><path d="m 282.04793,597.88633 1.90651,-0.14157 -0.85866,-8.82268 -0.88262,-0.46673 -0.48944,-6.38227 -0.86105,0.0314 z" id="path4622-0-1" style="fill:#858585;fill-opacity:1;stroke:none"/><path d="m 263.49744,597.83875 -1.91177,-0.002 0.21227,-8.84193 0.8462,-0.52992 0.0222,-6.40097 0.86103,-0.0316 z" id="path4622-0" style="fill:#858585;fill-opacity:1;stroke:none"/><path d="m 156.25,75.687501 29.9332,-2.458579" transform="translate(100.64286,249.43361)" id="path3852" style="fill:none;stroke:#000000;stroke-width:2.5;stroke-linecap:round;stroke-linejoin:miter;stroke-miterlimit:4;stroke-opacity:1;stroke-dasharray:none"/></g><g id="layer3" style="display:inline"><g transform="translate(-100.64286,-249.43361)" id="g4060" style="display:inline"><path d="m 216.17265,19.342533 c 0,6.834175 -5.5402,12.374369 -12.37437,12.374369 -6.83418,0 -12.37437,-5.540194 -12.37437,-12.374369 0,-6.834175 5.54019,-12.3743686 12.37437,-12.3743686 6.83417,0 12.37437,5.5401936 12.37437,12.3743686 z" transform="matrix(1.1377551,0,0,1.1377551,-69.610366,624.81867)" id="path3029-26" style="fill:none;stroke:#000000;stroke-opacity:1"/><g id="g4487"><g id="g3916" style="fill:none;stroke:#000000;stroke-width:0.89999998;stroke-miterlimit:4;stroke-opacity:1;stroke-dasharray:3.5999999, 3.5999999;stroke-dashoffset:0"><path d="m 27.857143,176.57143 28.928571,79.64286" transform="translate(100.64286,249.43361)" id="path3009" style="fill:none;stroke:#000000;stroke-width:0.89999998;stroke-linecap:butt;stroke-linejoin:miter;stroke-miterlimit:4;stroke-opacity:1;stroke-dasharray:3.5999999, 3.5999999;stroke-dashoffset:0"/><path d="m 42.857143,271.57143 58.571427,46.25" transform="translate(100.64286,249.43361)" id="path3011" style="fill:none;stroke:#000000;stroke-width:0.89999998;stroke-linecap:butt;stroke-linejoin:miter;stroke-miterlimit:4;stroke-opacity:1;stroke-dasharray:3.5999999, 3.5999999;stroke-dashoffset:0"/><path d="m 29.642857,309.60714 23.392857,21.60715" transform="translate(100.64286,249.43361)" id="path3013" style="fill:none;stroke:#000000;stroke-width:0.89999998;stroke-linecap:butt;stroke-linejoin:miter;stroke-miterlimit:4;stroke-opacity:1;stroke-dasharray:3.5999999, 3.5999999;stroke-dashoffset:0"/><path d="M 80,60.499999 163.64471,249.15224" transform="translate(100.64286,249.43361)" id="path3015" style="fill:none;stroke:#000000;stroke-width:0.89999998;stroke-linecap:butt;stroke-linejoin:miter;stroke-miterlimit:4;stroke-opacity:1;stroke-dasharray:3.5999999, 3.5999999;stroke-dashoffset:0"/><path d="M 217.43534,212.78674 282.0851,133.74231" transform="translate(100.64286,249.43361)" id="path3017" style="fill:none;stroke:#000000;stroke-width:0.89999998;stroke-linecap:butt;stroke-linejoin:miter;stroke-miterlimit:4;stroke-opacity:1;stroke-dasharray:3.5999999, 3.5999999;stroke-dashoffset:0"/><path d="M 275.77165,119.85271 170.2107,104.19535" transform="translate(100.64286,249.43361)" id="path3019" style="fill:none;stroke:#000000;stroke-width:0.89999998;stroke-linecap:butt;stroke-linejoin:miter;stroke-miterlimit:4;stroke-opacity:1;stroke-dasharray:3.5999999, 3.5999999;stroke-dashoffset:0"/><path d="M 183.09015,88.285444 257.5889,55.960562" transform="translate(100.64286,249.43361)" id="path3021" style="fill:none;stroke:#000000;stroke-width:0.89999998;stroke-linecap:butt;stroke-linejoin:miter;stroke-miterlimit:4;stroke-opacity:1;stroke-dasharray:3.5999999, 3.5999999;stroke-dashoffset:0"/><path d="M 171.72593,74.395846 234.86047,30.706748" transform="translate(100.64286,249.43361)" id="path3023" style="fill:none;stroke:#000000;stroke-width:0.89999998;stroke-linecap:butt;stroke-linejoin:miter;stroke-miterlimit:4;stroke-opacity:1;stroke-dasharray:3.5999999, 3.5999999;stroke-dashoffset:0"/><path d="M 153.03811,39.293045 190.16122,23.130604" transform="translate(100.64286,249.43361)" id="path3025" style="fill:none;stroke:#000000;stroke-width:0.89999998;stroke-linecap:butt;stroke-linejoin:miter;stroke-miterlimit:4;stroke-opacity:1;stroke-dasharray:3.5999999, 3.5999999;stroke-dashoffset:0"/><path d="m 52.780471,386.02791 -10.85914,-17.1726" transform="translate(100.64286,249.43361)" id="path3908" style="fill:none;stroke:#000000;stroke-width:0.89999998;stroke-linecap:butt;stroke-linejoin:miter;stroke-miterlimit:4;stroke-opacity:1;stroke-dasharray:3.5999999, 3.5999999;stroke-dashoffset:6.29999983"/><path d="M 194.20183,392.84644 166.92771,332.23728" transform="translate(100.64286,249.43361)" id="path3910" style="fill:none;stroke:#000000;stroke-width:0.89999998;stroke-linecap:butt;stroke-linejoin:miter;stroke-miterlimit:4;stroke-opacity:1;stroke-dasharray:3.5999999, 3.5999999;stroke-dashoffset:0"/><path d="m 184.35284,312.03423 84.60028,72.22591" transform="translate(100.64286,249.43361)" id="path3912" style="fill:none;stroke:#000000;stroke-width:0.89999998;stroke-linecap:butt;stroke-linejoin:miter;stroke-miterlimit:4;stroke-opacity:1;stroke-dasharray:3.5999999, 3.5999999;stroke-dashoffset:0"/><path d="M 275.77165,353.45049 230.31478,304.20555" transform="translate(100.64286,249.43361)" id="path3914" style="fill:none;stroke:#000000;stroke-width:0.89999998;stroke-linecap:butt;stroke-linejoin:miter;stroke-miterlimit:4;stroke-opacity:1;stroke-dasharray:3.5999999, 3.5999999;stroke-dashoffset:0"/></g><g id="g4471" style="fill:#000000;fill-opacity:1;stroke:none"><path d="m 216.17265,19.342533 c 0,6.834175 -5.5402,12.374369 -12.37437,12.374369 -6.83418,0 -12.37437,-5.540194 -12.37437,-12.374369 0,-6.834175 5.54019,-12.3743686 12.37437,-12.3743686 6.83417,0 12.37437,5.5401936 12.37437,12.3743686 z" transform="matrix(1.1377551,0,0,1.1377551,72.063527,246.01147)" id="path3029" style="fill:#000000"/><path d="m 216.17265,19.342533 c 0,6.834175 -5.5402,12.374369 -12.37437,12.374369 -6.83418,0 -12.37437,-5.540194 -12.37437,-12.374369 0,-6.834175 5.54019,-12.3743686 12.37437,-12.3743686 6.83417,0 12.37437,5.5401936 12.37437,12.3743686 z" transform="matrix(1.1377551,0,0,1.1377551,116.07913,252.82736)" id="path3029-9" style="fill:#000000"/><path d="m 216.17265,19.342533 c 0,6.834175 -5.5402,12.374369 -12.37437,12.374369 -6.83418,0 -12.37437,-5.540194 -12.37437,-12.374369 0,-6.834175 5.54019,-12.3743686 12.37437,-12.3743686 6.83417,0 12.37437,5.5401936 12.37437,12.3743686 z" transform="matrix(1.1377551,0,0,1.1377551,139.36866,278.76745)" id="path3029-8" style="fill:#000000"/><path d="m 216.17265,19.342533 c 0,6.834175 -5.5402,12.374369 -12.37437,12.374369 -6.83418,0 -12.37437,-5.540194 -12.37437,-12.374369 0,-6.834175 5.54019,-12.3743686 12.37437,-12.3743686 6.83417,0 12.37437,5.5401936 12.37437,12.3743686 z" transform="matrix(1.1377551,0,0,1.1377551,158.22236,350.17973)" id="path3029-0" style="fill:#000000"/><path d="m 216.17265,19.342533 c 0,6.834175 -5.5402,12.374369 -12.37437,12.374369 -6.83418,0 -12.37437,-5.540194 -12.37437,-12.374369 0,-6.834175 5.54019,-12.3743686 12.37437,-12.3743686 6.83417,0 12.37437,5.5401936 12.37437,12.3743686 z" transform="matrix(1.1377551,0,0,1.1377551,100.09526,368.99754)" id="path3029-93" style="fill:#000000"/><path d="m 216.17265,19.342533 c 0,6.834175 -5.5402,12.374369 -12.37437,12.374369 -6.83418,0 -12.37437,-5.540194 -12.37437,-12.374369 0,-6.834175 5.54019,-12.3743686 12.37437,-12.3743686 6.83417,0 12.37437,5.5401936 12.37437,12.3743686 z" transform="matrix(1.1377551,0,0,1.1377551,71.81099,484.15492)" id="path3029-1" style="fill:#000000"/><path d="m 216.17265,19.342533 c 0,6.834175 -5.5402,12.374369 -12.37437,12.374369 -6.83418,0 -12.37437,-5.540194 -12.37437,-12.374369 0,-6.834175 5.54019,-12.3743686 12.37437,-12.3743686 6.83417,0 12.37437,5.5401936 12.37437,12.3743686 z" transform="matrix(1.1377551,0,0,1.1377551,155.65366,588.70571)" id="path3029-6" style="fill:#000000"/><path d="m 216.17265,19.342533 c 0,6.834175 -5.5402,12.374369 -12.37437,12.374369 -6.83418,0 -12.37437,-5.540194 -12.37437,-12.374369 0,-6.834175 5.54019,-12.3743686 12.37437,-12.3743686 6.83417,0 12.37437,5.5401936 12.37437,12.3743686 z" transform="matrix(1.1377551,0,0,1.1377551,146.81482,621.53567)" id="path3029-3" style="fill:#000000"/><path d="m 216.17265,19.342533 c 0,6.834175 -5.5402,12.374369 -12.37437,12.374369 -6.83418,0 -12.37437,-5.540194 -12.37437,-12.374369 0,-6.834175 5.54019,-12.3743686 12.37437,-12.3743686 6.83417,0 12.37437,5.5401936 12.37437,12.3743686 z" transform="matrix(1.1377551,0,0,1.1377551,66.002614,633.6575)" id="path3029-2" style="fill:#000000"/><path d="m 216.17265,19.342533 c 0,6.834175 -5.5402,12.374369 -12.37437,12.374369 -6.83418,0 -12.37437,-5.540194 -12.37437,-12.374369 0,-6.834175 5.54019,-12.3743686 12.37437,-12.3743686 6.83417,0 12.37437,5.5401936 12.37437,12.3743686 z" transform="matrix(1.1377551,0,0,1.1377551,-111.02662,527.33894)" id="path3029-35" style="fill:#000000"/><path d="m 216.17265,19.342533 c 0,6.834175 -5.5402,12.374369 -12.37437,12.374369 -6.83418,0 -12.37437,-5.540194 -12.37437,-12.374369 0,-6.834175 5.54019,-12.3743686 12.37437,-12.3743686 6.83417,0 12.37437,5.5401936 12.37437,12.3743686 z" transform="matrix(1.1377551,0,0,1.1377551,-97.642099,488.95315)" id="path3029-357" style="fill:#000000"/><path d="m 216.17265,19.342533 c 0,6.834175 -5.5402,12.374369 -12.37437,12.374369 -6.83418,0 -12.37437,-5.540194 -12.37437,-12.374369 0,-6.834175 5.54019,-12.3743686 12.37437,-12.3743686 6.83417,0 12.37437,5.5401936 12.37437,12.3743686 z" transform="matrix(1.1377551,0,0,1.1377551,-7.4859841,495.51914)" id="path3029-5" style="fill:#000000"/><path d="m 216.17265,19.342533 c 0,6.834175 -5.5402,12.374369 -12.37437,12.374369 -6.83418,0 -12.37437,-5.540194 -12.37437,-12.374369 0,-6.834175 5.54019,-12.3743686 12.37437,-12.3743686 6.83417,0 12.37437,5.5401936 12.37437,12.3743686 z" transform="matrix(1.1377551,0,0,1.1377551,-107.23855,390.21074)" id="path3029-15" style="fill:#000000"/><path d="m 216.17265,19.342533 c 0,6.834175 -5.5402,12.374369 -12.37437,12.374369 -6.83418,0 -12.37437,-5.540194 -12.37437,-12.374369 0,-6.834175 5.54019,-12.3743686 12.37437,-12.3743686 6.83417,0 12.37437,5.5401936 12.37437,12.3743686 z" transform="matrix(1.1377551,0,0,1.1377551,-61.943957,279.71225)" id="path3029-38" style="fill:#000000"/></g></g></g><path d="m 66.542728,391.71268 c -0.540373,0.97006 -1.067716,1.94662 -1.582031,2.92968 -0.51433,0.98309 -1.005866,1.97755 -1.474609,2.9834 -0.468756,1.00587 -0.906581,2.02475 -1.313477,3.05664 -0.406905,1.03191 -0.776371,2.08171 -1.108398,3.14942 l -1.914063,0 0,-0.43946 c 0.1888,-0.54687 0.406899,-1.13118 0.654297,-1.75293 0.247393,-0.62174 0.515948,-1.25813 0.805664,-1.90917 0.28971,-0.65104 0.590817,-1.30208 0.903321,-1.95313 0.312495,-0.65103 0.623367,-1.27929 0.932617,-1.88477 0.309239,-0.60546 0.613601,-1.17186 0.913086,-1.69921 0.299472,-0.52734 0.576165,-0.99283 0.830078,-1.39649 l -5.78125,0 0,-1.60156 7.763672,0 z" id="path4154" style="font-size:20px;font-style:normal;font-variant:normal;font-weight:normal;font-stretch:normal;text-align:start;line-height:125%;letter-spacing:0px;word-spacing:0px;writing-mode:lr-tb;text-anchor:start;fill:#000000;fill-opacity:1;stroke:none;font-family:Estrangelo Edessa;-inkscape-font-specification:Estrangelo Edessa"/><path d="m 19.237612,378.11273 c -7e-6,-0.40364 -0.06023,-0.74869 -0.180664,-1.03515 -0.12045,-0.28646 -0.286465,-0.52246 -0.498047,-0.70801 -0.211595,-0.18554 -0.458991,-0.32226 -0.742188,-0.41016 -0.283208,-0.0879 -0.58757,-0.13183 -0.913086,-0.13183 -0.312504,0 -0.615238,0.0374 -0.908203,0.1123 -0.292972,0.0749 -0.543623,0.15788 -0.751953,0.24902 -0.10417,0.22136 -0.180667,0.48341 -0.229492,0.78614 -0.04883,0.30274 -0.07325,0.60059 -0.07324,0.89355 -3e-6,0.44922 0.05371,0.84148 0.161133,1.17676 0.107418,0.33529 0.257158,0.61524 0.449218,0.83984 0.192054,0.22461 0.419918,0.39226 0.683594,0.50293 0.263667,0.11068 0.551753,0.16602 0.864258,0.16602 0.319005,0 0.610346,-0.0553 0.874023,-0.16602 0.263666,-0.11067 0.488275,-0.27018 0.673828,-0.47851 0.185541,-0.20833 0.330397,-0.46387 0.434571,-0.7666 0.104159,-0.30274 0.156243,-0.64616 0.15625,-1.03028 z m 1.943359,-0.11719 c -9e-6,0.58595 -0.09766,1.12956 -0.292969,1.63086 -0.195321,0.50131 -0.472013,0.93425 -0.830078,1.29883 -0.35808,0.36459 -0.787767,0.64942 -1.289062,0.85449 -0.501309,0.20508 -1.057949,0.30762 -1.669922,0.30762 -0.651046,0 -1.228845,-0.10091 -1.733399,-0.30273 -0.50456,-0.20183 -0.927736,-0.48828 -1.269531,-0.85938 -0.341798,-0.37109 -0.600587,-0.82031 -0.776367,-1.34765 -0.175782,-0.52735 -0.263673,-1.11654 -0.263672,-1.76758 -10e-7,-0.63802 0.104166,-1.32161 0.3125,-2.05078 0.208332,-0.72916 0.5013,-1.46647 0.878906,-2.21192 0.377602,-0.74543 0.831703,-1.48274 1.362305,-2.21191 0.530595,-0.72916 1.114904,-1.41601 1.75293,-2.06055 l 2.080078,0 c -0.384122,0.44272 -0.75847,0.89357 -1.123047,1.35254 -0.364589,0.459 -0.706386,0.91472 -1.025391,1.36719 -0.319015,0.45248 -0.605473,0.89356 -0.859375,1.32324 -0.25391,0.4297 -0.465498,0.83985 -0.634765,1.23047 0.188798,-0.0391 0.406897,-0.0749 0.654297,-0.10742 0.247391,-0.0326 0.524083,-0.0488 0.830078,-0.0488 0.520827,10e-6 1.017246,0.0781 1.489258,0.23437 0.471998,0.15626 0.885409,0.38575 1.240234,0.68848 0.354809,0.30274 0.638012,0.67872 0.849609,1.12793 0.21158,0.44922 0.317374,0.9668 0.317383,1.55273 z" id="path4157" style="font-size:20px;font-style:normal;font-variant:normal;font-weight:normal;font-stretch:normal;text-align:start;line-height:125%;letter-spacing:0px;word-spacing:0px;writing-mode:lr-tb;text-anchor:start;fill:#000000;fill-opacity:1;stroke:none;font-family:Estrangelo Edessa;-inkscape-font-specification:Estrangelo Edessa"/><path d="m 16.715901,306.07434 -1.875,0 0,-10.26367 c -0.104171,0.0911 -0.216476,0.18718 -0.336914,0.28808 -0.120447,0.10093 -0.236007,0.1937 -0.346679,0.27833 l -2.460938,1.75781 0,-1.86524 3.818359,-2.87109 1.201172,0 z" id="path4160" style="font-size:20px;font-style:normal;font-variant:normal;font-weight:normal;font-stretch:normal;text-align:start;line-height:125%;letter-spacing:0px;word-spacing:0px;writing-mode:lr-tb;text-anchor:start;fill:#ffffff;fill-opacity:1;stroke:none;font-family:Estrangelo Edessa;-inkscape-font-specification:Estrangelo Edessa"/><path d="m 26.833089,306.07434 -1.875,0 0,-10.26367 c -0.104172,0.0911 -0.216476,0.18718 -0.336914,0.28808 -0.120447,0.10093 -0.236007,0.1937 -0.34668,0.27833 l -2.460937,1.75781 0,-1.86524 3.818359,-2.87109 1.201172,0 z" id="path4162" style="font-size:20px;font-style:normal;font-variant:normal;font-weight:normal;font-stretch:normal;text-align:start;line-height:125%;letter-spacing:0px;word-spacing:0px;writing-mode:lr-tb;text-anchor:start;fill:#ffffff;fill-opacity:1;stroke:none;font-family:Estrangelo Edessa;-inkscape-font-specification:Estrangelo Edessa"/><path d="m 29.443823,267.53702 -1.875,0 0,-10.26367 c -0.104172,0.0912 -0.216476,0.18718 -0.336914,0.28808 -0.120447,0.10092 -0.236007,0.1937 -0.34668,0.27832 l -2.460937,1.75781 0,-1.86523 3.818359,-2.87109 1.201172,0 z" id="path4165" style="font-size:20px;font-style:normal;font-variant:normal;font-weight:normal;font-stretch:normal;text-align:start;line-height:125%;letter-spacing:0px;word-spacing:0px;writing-mode:lr-tb;text-anchor:start;fill:#ffffff;fill-opacity:1;stroke:none;font-family:Estrangelo Edessa;-inkscape-font-specification:Estrangelo Edessa"/><path d="m 39.141088,258.37686 c -6e-6,-0.64452 -0.157883,-1.14582 -0.473632,-1.5039 -0.315761,-0.35807 -0.776373,-0.5371 -1.381836,-0.53711 -0.266932,1e-5 -0.550134,0.0407 -0.84961,0.12207 -0.299482,0.0814 -0.594078,0.19044 -0.883789,0.32714 -0.289716,0.13673 -0.566408,0.29298 -0.830078,0.46875 -0.263673,0.1758 -0.48991,0.35809 -0.678711,0.54688 l 0,-1.76758 c 0.188801,-0.17577 0.410155,-0.34178 0.664063,-0.49805 0.253904,-0.15623 0.528969,-0.29295 0.825195,-0.41015 0.296221,-0.11718 0.610348,-0.21158 0.942383,-0.2832 0.332027,-0.0716 0.673824,-0.10741 1.02539,-0.10743 0.566401,2e-5 1.077469,0.0798 1.533204,0.23926 0.455722,0.15952 0.841464,0.38901 1.157226,0.68848 0.315748,0.29949 0.559888,0.65919 0.732422,1.0791 0.172518,0.41993 0.258781,0.89031 0.258789,1.41113 -8e-6,0.54038 -0.06674,1.03028 -0.200195,1.46973 -0.133472,0.43946 -0.319019,0.85938 -0.556641,1.25976 -0.237637,0.4004 -0.517585,0.79754 -0.839844,1.19141 -0.322272,0.39389 -0.675461,0.82195 -1.05957,1.28418 l -2.138672,2.59766 5.214844,0 0,1.58203 -7.519531,0 0,-1.37696 2.978515,-3.68164 c 0.312496,-0.39062 0.597326,-0.74869 0.854493,-1.07421 0.257156,-0.32552 0.476882,-0.64453 0.659179,-0.95704 0.182286,-0.31249 0.32226,-0.63475 0.419922,-0.96679 0.09765,-0.33203 0.146478,-0.69986 0.146484,-1.10352 z" id="path4167" style="font-size:20px;font-style:normal;font-variant:normal;font-weight:normal;font-stretch:normal;text-align:start;line-height:125%;letter-spacing:0px;word-spacing:0px;writing-mode:lr-tb;text-anchor:start;fill:#ffffff;fill-opacity:1;stroke:none;font-family:Estrangelo Edessa;-inkscape-font-specification:Estrangelo Edessa"/><g id="text4004" style="font-size:20px;font-style:normal;font-variant:normal;font-weight:normal;font-stretch:normal;text-align:start;line-height:125%;letter-spacing:0px;word-spacing:0px;writing-mode:lr-tb;text-anchor:start;fill:#ffffff;fill-opacity:1;stroke:none;font-family:Estrangelo Edessa;-inkscape-font-specification:Estrangelo Edessa"><path d="m 125.37811,273.81522 -1.875,0 0,-10.26368 c -0.10417,0.0912 -0.21647,0.18719 -0.33691,0.28809 -0.12045,0.10092 -0.23601,0.19369 -0.34668,0.27832 l -2.46094,1.75781 0,-1.86523 3.81836,-2.8711 1.20117,0 z" id="path4170"/></g><g id="text4008" style="font-size:20px;font-style:normal;font-variant:normal;font-weight:normal;font-stretch:normal;text-align:start;line-height:125%;letter-spacing:0px;word-spacing:0px;writing-mode:lr-tb;text-anchor:start;fill:#ffffff;fill-opacity:1;stroke:none;font-family:Estrangelo Edessa;-inkscape-font-specification:Estrangelo Edessa"><path d="m 193.58098,412.67065 -1.875,0 0,-10.26367 c -0.10417,0.0912 -0.21648,0.18719 -0.33692,0.28809 -0.12044,0.10092 -0.236,0.19369 -0.34668,0.27832 l -2.46093,1.75781 0,-1.86523 3.81836,-2.8711 1.20117,0 z" id="path4173"/><path d="m 206.23723,400.55151 c -0.54038,0.97007 -1.06772,1.94663 -1.58203,2.92969 -0.51433,0.98308 -1.00587,1.97755 -1.47461,2.9834 -0.46876,1.00586 -0.90658,2.02474 -1.31348,3.05664 -0.4069,1.0319 -0.77637,2.08171 -1.1084,3.14941 l -1.91406,0 0,-0.43945 c 0.1888,-0.54687 0.4069,-1.13118 0.6543,-1.75293 0.24739,-0.62174 0.51594,-1.25813 0.80566,-1.90918 0.28971,-0.65104 0.59082,-1.30208 0.90332,-1.95312 0.3125,-0.65104 0.62337,-1.27929 0.93262,-1.88477 0.30924,-0.60546 0.6136,-1.17186 0.91308,-1.69922 0.29948,-0.52733 0.57617,-0.99283 0.83008,-1.39648 l -5.78125,0 0,-1.60156 7.76367,0 z" id="path4175"/></g><path d="m 155.07127,391.35294 c -1e-5,0.66406 -0.12045,1.25976 -0.36132,1.78711 -0.2409,0.52734 -0.56967,0.97493 -0.98633,1.34277 -0.41668,0.36784 -0.89845,0.64779 -1.44531,0.83984 -0.54689,0.19206 -1.12957,0.28809 -1.74805,0.28809 -0.5599,0 -1.08562,-0.0586 -1.57715,-0.17578 -0.49154,-0.11719 -0.91634,-0.2767 -1.27441,-0.47852 l 0,-1.75781 c 0.17578,0.11719 0.37923,0.22949 0.61035,0.33691 0.23111,0.10743 0.472,0.20183 0.72265,0.28321 0.25065,0.0814 0.5013,0.14811 0.75196,0.20019 0.25064,0.0521 0.48665,0.0781 0.708,0.0781 0.40365,0 0.76986,-0.0651 1.09864,-0.19532 0.32877,-0.1302 0.61034,-0.31249 0.84472,-0.54687 0.23437,-0.23437 0.41666,-0.51432 0.54688,-0.83984 0.1302,-0.32552 0.1953,-0.68034 0.19531,-1.06446 -1e-5,-0.41666 -0.0749,-0.77962 -0.22461,-1.08887 -0.14974,-0.30923 -0.34994,-0.5664 -0.60058,-0.77148 -0.25066,-0.20507 -0.54037,-0.35644 -0.86914,-0.4541 -0.32879,-0.0976 -0.67221,-0.14322 -1.03028,-0.13672 -0.44271,10e-6 -0.86914,0.0554 -1.27929,0.16602 -0.41016,0.11068 -0.778,0.2474 -1.10352,0.41015 l -0.39063,-0.51758 0,-6.25976 6.83594,0 0,1.60156 -5.11719,0 0,3.25195 c 0.0977,-0.013 0.20508,-0.026 0.32227,-0.0391 0.11718,-0.013 0.23925,-0.0244 0.36621,-0.0342 0.12695,-0.01 0.25228,-0.0163 0.37598,-0.0195 0.12369,-0.003 0.23437,-0.005 0.33203,-0.005 0.61848,1e-5 1.1914,0.0846 1.71875,0.2539 0.52734,0.16928 0.98144,0.41505 1.3623,0.73731 0.38085,0.32227 0.67871,0.71941 0.89356,1.1914 0.21483,0.47202 0.32225,1.01075 0.32226,1.61622 z" id="path4178" style="font-size:20px;font-style:normal;font-variant:normal;font-weight:normal;font-stretch:normal;text-align:start;line-height:125%;letter-spacing:0px;word-spacing:0px;writing-mode:lr-tb;text-anchor:start;fill:#000000;fill-opacity:1;stroke:none;font-family:Estrangelo Edessa;-inkscape-font-specification:Estrangelo Edessa"/><path d="m 116.24616,355.78525 0,-4.88281 c 0,-0.0911 0,-0.19368 0,-0.30762 0,-0.11392 0.007,-0.23274 0.0195,-0.35645 -0.0326,0.0326 -0.0553,0.0667 -0.0684,0.10254 -0.013,0.0358 -0.0358,0.07 -0.0684,0.10254 -0.0977,0.0977 -0.23112,0.24741 -0.40039,0.44922 -0.16927,0.20183 -0.35645,0.43946 -0.56152,0.71289 -0.20508,0.27345 -0.42318,0.57618 -0.6543,0.9082 -0.23112,0.33204 -0.45573,0.68035 -0.67382,1.04493 -0.21811,0.36459 -0.42481,0.73568 -0.62012,1.11328 -0.19532,0.37761 -0.36459,0.7487 -0.50781,1.11328 z m 3.68164,1.47461 -1.8164,0 0,3.26172 -1.86524,0 0,-3.26172 -5.34179,0 -0.11719,-0.57617 c 0.0716,-0.41016 0.22623,-0.88216 0.46387,-1.41602 0.23762,-0.53385 0.52571,-1.09049 0.86425,-1.66992 0.33854,-0.57942 0.71126,-1.1621 1.11817,-1.74805 0.40689,-0.58593 0.8138,-1.13768 1.2207,-1.65527 0.4069,-0.51757 0.79752,-0.98144 1.17188,-1.3916 0.37434,-0.41015 0.70149,-0.72916 0.98144,-0.95704 l 1.50391,0 0,7.93946 1.8164,0 z" id="path4181" style="font-size:20px;font-style:normal;font-variant:normal;font-weight:normal;font-stretch:normal;text-align:start;line-height:125%;letter-spacing:0px;word-spacing:0px;writing-mode:lr-tb;text-anchor:start;fill:#000000;fill-opacity:1;stroke:none;font-family:Estrangelo Edessa;-inkscape-font-specification:Estrangelo Edessa"/><g id="text4020" style="font-size:20px;font-style:normal;font-variant:normal;font-weight:normal;font-stretch:normal;text-align:start;line-height:125%;letter-spacing:0px;word-spacing:0px;writing-mode:lr-tb;text-anchor:start;fill:#ffffff;fill-opacity:1;stroke:none;font-family:Estrangelo Edessa;-inkscape-font-specification:Estrangelo Edessa"><path d="m 204.73996,253.60388 c -1e-5,-0.64452 -0.15788,-1.14582 -0.47363,-1.5039 -0.31576,-0.35807 -0.77638,-0.5371 -1.38184,-0.53711 -0.26693,1e-5 -0.55013,0.0407 -0.84961,0.12207 -0.29948,0.0814 -0.59408,0.19044 -0.88379,0.32714 -0.28971,0.13673 -0.56641,0.29298 -0.83008,0.46875 -0.26367,0.1758 -0.48991,0.35809 -0.67871,0.54688 l 0,-1.76758 c 0.1888,-0.17577 0.41016,-0.34178 0.66407,-0.49805 0.2539,-0.15623 0.52896,-0.29295 0.82519,-0.41015 0.29622,-0.11718 0.61035,-0.21158 0.94238,-0.2832 0.33203,-0.0716 0.67383,-0.10741 1.02539,-0.10743 0.56641,2e-5 1.07747,0.0798 1.53321,0.23926 0.45572,0.15952 0.84146,0.38901 1.15722,0.68848 0.31575,0.29949 0.55989,0.65919 0.73243,1.0791 0.17251,0.41993 0.25878,0.89031 0.25879,1.41113 -1e-5,0.54038 -0.0667,1.03028 -0.2002,1.46973 -0.13347,0.43946 -0.31902,0.85938 -0.55664,1.25976 -0.23764,0.4004 -0.51759,0.79754 -0.83984,1.19141 -0.32228,0.39389 -0.67547,0.82195 -1.05957,1.28418 l -2.13868,2.59766 5.21485,0 0,1.58203 -7.51953,0 0,-1.37696 2.97851,-3.68164 c 0.3125,-0.39062 0.59733,-0.74869 0.85449,-1.07421 0.25716,-0.32552 0.47689,-0.64453 0.65918,-0.95704 0.18229,-0.31249 0.32226,-0.63475 0.41993,-0.96679 0.0976,-0.33203 0.14647,-0.69986 0.14648,-1.10352 z" id="path4184"/></g><g id="text4028" style="font-size:20px;font-style:normal;font-variant:normal;font-weight:normal;font-stretch:normal;text-align:start;line-height:125%;letter-spacing:0px;word-spacing:0px;writing-mode:lr-tb;text-anchor:start;fill:#ffffff;fill-opacity:1;stroke:none;font-family:Estrangelo Edessa;-inkscape-font-specification:Estrangelo Edessa"><path d="m 274.0144,400.3847 -1.875,0 0,-10.26367 c -0.10417,0.0912 -0.21647,0.18719 -0.33691,0.28809 -0.12045,0.10092 -0.23601,0.19369 -0.34668,0.27832 l -2.46094,1.75781 0,-1.86523 3.81836,-2.8711 1.20117,0 z" id="path4187"/><path d="m 286.05542,396.78119 c -1e-5,0.57292 -0.1058,1.09212 -0.31738,1.55762 -0.2116,0.46549 -0.51108,0.86263 -0.89844,1.1914 -0.38738,0.32878 -0.84962,0.58268 -1.38672,0.76172 -0.53711,0.17904 -1.13119,0.26856 -1.78223,0.26856 -0.57943,0 -1.12793,-0.0602 -1.6455,-0.18067 -0.51758,-0.12044 -0.98145,-0.30436 -1.39161,-0.55176 l 0,-1.78711 c 0.22787,0.15626 0.47201,0.29786 0.73243,0.42481 0.26041,0.12695 0.52083,0.23438 0.78125,0.32226 0.26041,0.0879 0.51594,0.15626 0.7666,0.20508 0.25065,0.0488 0.48339,0.0732 0.69824,0.0732 0.83984,0 1.4567,-0.19694 1.85059,-0.59083 0.39387,-0.39387 0.59081,-0.92935 0.59082,-1.60644 -1e-5,-0.33854 -0.0733,-0.63802 -0.21973,-0.89844 -0.14649,-0.26041 -0.35482,-0.48014 -0.625,-0.65918 -0.27019,-0.17903 -0.59083,-0.31412 -0.96191,-0.40527 -0.3711,-0.0911 -0.78126,-0.13671 -1.23047,-0.13672 l -0.9375,0 0,-1.60156 0.5957,0 c 0.5013,0 0.9375,-0.057 1.30859,-0.1709 0.37109,-0.11393 0.67871,-0.26855 0.92286,-0.46387 0.24413,-0.1953 0.42642,-0.42642 0.54687,-0.69336 0.12044,-0.26692 0.18066,-0.55337 0.18066,-0.85937 0,-0.33202 -0.0505,-0.61523 -0.15136,-0.84961 -0.10092,-0.23437 -0.23927,-0.42642 -0.41504,-0.57617 -0.17579,-0.14973 -0.38412,-0.25878 -0.625,-0.32715 -0.24089,-0.0684 -0.50456,-0.10253 -0.79102,-0.10254 -0.1888,1e-5 -0.40202,0.0228 -0.63965,0.0684 -0.23763,0.0456 -0.48665,0.11231 -0.74707,0.20019 -0.26042,0.0879 -0.52246,0.19207 -0.78613,0.3125 -0.26367,0.12046 -0.5127,0.2588 -0.74707,0.41504 l 0,-1.69922 c 0.46875,-0.29295 0.96191,-0.50617 1.47949,-0.63964 0.51758,-0.13346 1.05957,-0.20019 1.62598,-0.2002 0.59244,1e-5 1.11979,0.0749 1.58203,0.22461 0.46223,0.14975 0.85286,0.36622 1.17188,0.64941 0.319,0.28322 0.56314,0.62501 0.73242,1.02539 0.16926,0.40041 0.2539,0.85451 0.2539,1.36231 0,0.36459 -0.0602,0.70476 -0.18066,1.02051 -0.12045,0.31576 -0.28484,0.60222 -0.49316,0.85937 -0.20834,0.25717 -0.45737,0.48341 -0.74707,0.67871 -0.28972,0.19532 -0.60385,0.35483 -0.94239,0.47852 0.42968,0.0781 0.81868,0.20508 1.167,0.38086 0.3483,0.17578 0.64777,0.39063 0.89843,0.64453 0.25065,0.25391 0.4427,0.54037 0.57617,0.85937 0.13346,0.31902 0.20019,0.65756 0.2002,1.01563 z" id="path4189"/></g><g id="text4032" style="font-size:20px;font-style:normal;font-variant:normal;font-weight:normal;font-stretch:normal;text-align:start;line-height:125%;letter-spacing:0px;word-spacing:0px;writing-mode:lr-tb;text-anchor:start;fill:#ffffff;fill-opacity:1;stroke:none;font-family:Estrangelo Edessa;-inkscape-font-specification:Estrangelo Edessa"><path d="m 235.72151,143.72534 c -1e-5,0.57292 -0.1058,1.09213 -0.31738,1.55762 -0.2116,0.4655 -0.51108,0.86263 -0.89844,1.19141 -0.38738,0.32877 -0.84961,0.58268 -1.38672,0.76171 -0.53711,0.17904 -1.13119,0.26856 -1.78222,0.26856 -0.57943,0 -1.12794,-0.0602 -1.64551,-0.18067 -0.51758,-0.12044 -0.98145,-0.30436 -1.3916,-0.55175 l 0,-1.78711 c 0.22786,0.15625 0.472,0.29785 0.73242,0.4248 0.26041,0.12696 0.52083,0.23438 0.78125,0.32227 0.26041,0.0879 0.51595,0.15625 0.7666,0.20508 0.25065,0.0488 0.48339,0.0732 0.69824,0.0732 0.83984,0 1.4567,-0.19694 1.85059,-0.59082 0.39387,-0.39388 0.59081,-0.92936 0.59082,-1.60645 -1e-5,-0.33854 -0.0733,-0.63801 -0.21973,-0.89844 -0.14649,-0.26041 -0.35482,-0.48013 -0.625,-0.65917 -0.27019,-0.17904 -0.59082,-0.31413 -0.96191,-0.40528 -0.3711,-0.0911 -0.78126,-0.13671 -1.23047,-0.13672 l -0.9375,0 0,-1.60156 0.5957,0 c 0.5013,1e-5 0.9375,-0.057 1.3086,-0.1709 0.37108,-0.11392 0.6787,-0.26854 0.92285,-0.46387 0.24413,-0.1953 0.42642,-0.42642 0.54687,-0.69335 0.12044,-0.26692 0.18066,-0.55338 0.18067,-0.85938 -1e-5,-0.33202 -0.0505,-0.61522 -0.15137,-0.84961 -0.10092,-0.23436 -0.23926,-0.42642 -0.41504,-0.57617 -0.17579,-0.14973 -0.38412,-0.25878 -0.625,-0.32715 -0.24089,-0.0683 -0.50456,-0.10253 -0.79102,-0.10254 -0.1888,1e-5 -0.40202,0.0228 -0.63964,0.0684 -0.23764,0.0456 -0.48666,0.11232 -0.74707,0.2002 -0.26042,0.0879 -0.52247,0.19206 -0.78614,0.3125 -0.26367,0.12045 -0.51269,0.2588 -0.74707,0.41504 l 0,-1.69922 c 0.46875,-0.29296 0.96191,-0.50618 1.4795,-0.63965 0.51757,-0.13345 1.05956,-0.20018 1.62597,-0.2002 0.59244,2e-5 1.11979,0.0749 1.58203,0.22461 0.46224,0.14975 0.85286,0.36623 1.17188,0.64942 0.319,0.28321 0.56314,0.62501 0.73242,1.02539 0.16926,0.4004 0.2539,0.8545 0.25391,1.3623 -1e-5,0.36459 -0.0602,0.70476 -0.18067,1.02051 -0.12045,0.31576 -0.28484,0.60222 -0.49316,0.85937 -0.20834,0.25717 -0.45737,0.48341 -0.74707,0.67872 -0.28972,0.19531 -0.60385,0.35482 -0.94239,0.47851 0.42969,0.0781 0.81868,0.20509 1.167,0.38086 0.3483,0.17579 0.64778,0.39063 0.89843,0.64453 0.25065,0.25391 0.4427,0.54037 0.57618,0.85938 0.13345,0.31901 0.20018,0.65755 0.20019,1.01562 z" id="path4192"/></g><g id="text4036" style="font-size:20px;font-style:normal;font-variant:normal;font-weight:normal;font-stretch:normal;text-align:start;line-height:125%;letter-spacing:0px;word-spacing:0px;writing-mode:lr-tb;text-anchor:start;fill:#ffffff;fill-opacity:1;stroke:none;font-family:Estrangelo Edessa;-inkscape-font-specification:Estrangelo Edessa"><path d="m 285.77005,128.23698 -1.875,0 0,-10.26367 c -0.10417,0.0912 -0.21648,0.18719 -0.33691,0.28809 -0.12045,0.10092 -0.23601,0.19369 -0.34668,0.27832 l -2.46094,1.75781 0,-1.86523 3.81836,-2.8711 1.20117,0 z" id="path4195"/><path d="m 296.28763,124.43816 c -10e-6,-0.40365 -0.0602,-0.7487 -0.18067,-1.03516 -0.12045,-0.28645 -0.28646,-0.52246 -0.49804,-0.70801 -0.2116,-0.18554 -0.45899,-0.32226 -0.74219,-0.41015 -0.28321,-0.0879 -0.58757,-0.13183 -0.91309,-0.13184 -0.3125,10e-6 -0.61523,0.0374 -0.9082,0.1123 -0.29297,0.0749 -0.54362,0.15789 -0.75195,0.24903 -0.10417,0.22136 -0.18067,0.4834 -0.22949,0.78613 -0.0488,0.30274 -0.0733,0.60059 -0.0733,0.89356 0,0.44922 0.0537,0.84147 0.16114,1.17675 0.10741,0.33529 0.25715,0.61524 0.44921,0.83985 0.19206,0.22461 0.41992,0.39225 0.6836,0.50293 0.26367,0.11068 0.55175,0.16601 0.86426,0.16601 0.319,0 0.61034,-0.0553 0.87402,-0.16601 0.26367,-0.11068 0.48827,-0.27018 0.67383,-0.47852 0.18554,-0.20833 0.33039,-0.46386 0.43457,-0.7666 0.10416,-0.30273 0.15624,-0.64616 0.15625,-1.03027 z m 1.94336,-0.11719 c -1e-5,0.58594 -0.0977,1.12956 -0.29297,1.63086 -0.19532,0.5013 -0.47201,0.93424 -0.83008,1.29883 -0.35808,0.36458 -0.78777,0.64941 -1.28906,0.85449 -0.50131,0.20508 -1.05795,0.30762 -1.66992,0.30762 -0.65105,0 -1.22885,-0.10092 -1.7334,-0.30274 -0.50456,-0.20182 -0.92774,-0.48828 -1.26953,-0.85937 -0.3418,-0.3711 -0.60059,-0.82031 -0.77637,-1.34766 -0.17578,-0.52734 -0.26367,-1.11653 -0.26367,-1.76758 0,-0.63801 0.10416,-1.32161 0.3125,-2.05078 0.20833,-0.72916 0.5013,-1.46646 0.8789,-2.21191 0.37761,-0.74544 0.83171,-1.48274 1.36231,-2.21192 0.53059,-0.72915 1.1149,-1.416 1.75293,-2.06054 l 2.08008,0 c -0.38413,0.44272 -0.75847,0.89356 -1.12305,1.35253 -0.36459,0.459 -0.70639,0.91473 -1.02539,1.36719 -0.31902,0.45249 -0.60547,0.89357 -0.85938,1.32324 -0.25391,0.4297 -0.46549,0.83986 -0.63476,1.23047 0.1888,-0.0391 0.4069,-0.0749 0.6543,-0.10742 0.24739,-0.0325 0.52408,-0.0488 0.83007,-0.0488 0.52083,1e-5 1.01725,0.0781 1.48926,0.23438 0.472,0.15626 0.88541,0.38575 1.24024,0.68847 0.3548,0.30275 0.63801,0.67872 0.8496,1.12793 0.21158,0.44923 0.31738,0.96681 0.31739,1.55274 z" id="path4197"/></g><g id="text4040" style="font-size:20px;font-style:normal;font-variant:normal;font-weight:normal;font-stretch:normal;text-align:start;line-height:125%;letter-spacing:0px;word-spacing:0px;writing-mode:lr-tb;text-anchor:start;fill:#ffffff;fill-opacity:1;stroke:none;font-family:Estrangelo Edessa;-inkscape-font-specification:Estrangelo Edessa"><path d="m 266.85495,57.703079 -1.875,0 0,-10.263672 c -0.10417,0.09116 -0.21648,0.187185 -0.33691,0.288086 -0.12045,0.100922 -0.23601,0.193695 -0.34668,0.278321 l -2.46094,1.757812 0,-1.865234 3.81836,-2.871094 1.20117,0 z" id="path4200"/><path d="m 277.57761,51.482376 c -10e-6,-1.699211 -0.19532,-2.970368 -0.58594,-3.813476 -0.39063,-0.843089 -0.96355,-1.264638 -1.71875,-1.264649 -0.8073,1.1e-5 -1.41602,0.428071 -1.82617,1.28418 -0.41016,0.856129 -0.61524,2.153328 -0.61524,3.891601 0,1.601567 0.20182,2.799483 0.60547,3.59375 0.40364,0.794273 0.99609,1.191408 1.77734,1.191407 0.77474,10e-7 1.3623,-0.403644 1.7627,-1.210938 0.40038,-0.807288 0.60058,-2.031245 0.60059,-3.671875 z m 1.91406,-0.136719 c -10e-6,1.022141 -0.0993,1.938481 -0.29785,2.749024 -0.19858,0.810549 -0.48667,1.49577 -0.86426,2.055664 -0.37761,0.559897 -0.83822,0.987956 -1.38184,1.28418 -0.54362,0.296223 -1.16048,0.444335 -1.85058,0.444335 -0.6836,0 -1.28581,-0.138346 -1.80664,-0.415039 -0.52084,-0.276692 -0.95704,-0.680337 -1.3086,-1.210937 -0.35156,-0.530597 -0.61686,-1.183266 -0.7959,-1.958008 -0.17903,-0.774735 -0.26855,-1.660151 -0.26855,-2.65625 0,-1.080722 0.0895,-2.03938 0.26855,-2.875976 0.17904,-0.836579 0.45248,-1.541331 0.82032,-2.114258 0.36783,-0.572905 0.82844,-1.007475 1.38183,-1.303711 0.55338,-0.296212 1.20117,-0.444323 1.94336,-0.444336 2.77343,1.3e-5 4.16015,2.148448 4.16016,6.445312 z" id="path4202"/></g><g id="text4044" style="font-size:20px;font-style:normal;font-variant:normal;font-weight:normal;font-stretch:normal;text-align:start;line-height:125%;letter-spacing:0px;word-spacing:0px;writing-mode:lr-tb;text-anchor:start;fill:#ffffff;fill-opacity:1;stroke:none;font-family:Estrangelo Edessa;-inkscape-font-specification:Estrangelo Edessa"><path d="m 245.79156,23.213036 c 0,0.403654 0.0602,0.750333 0.18067,1.040039 0.12044,0.289721 0.28483,0.527351 0.49316,0.71289 0.20833,0.185554 0.4541,0.322273 0.73731,0.410157 0.2832,0.0879 0.58756,0.131842 0.91308,0.131835 0.3125,7e-6 0.61523,-0.03417 0.90821,-0.102539 0.29296,-0.06835 0.55012,-0.148105 0.77148,-0.239257 0.0911,-0.227858 0.1595,-0.481764 0.20508,-0.761719 0.0456,-0.27994 0.0684,-0.59244 0.0684,-0.9375 -1e-5,-0.442699 -0.0537,-0.828441 -0.16113,-1.157227 -0.10743,-0.328766 -0.25554,-0.605458 -0.44434,-0.830078 -0.18881,-0.224598 -0.41342,-0.392241 -0.67383,-0.50293 -0.26042,-0.110665 -0.54688,-0.166004 -0.85937,-0.166015 -0.31902,1.1e-5 -0.61036,0.05372 -0.87403,0.161133 -0.26367,0.107433 -0.48828,0.263682 -0.67382,0.46875 -0.18555,0.205088 -0.33041,0.455739 -0.43458,0.751953 -0.10416,0.296233 -0.15625,0.636402 -0.15625,1.020508 z m -1.96289,0.136718 c 0,-0.585928 0.0977,-1.12792 0.29297,-1.625976 0.19531,-0.498036 0.47363,-0.929351 0.83496,-1.293946 0.36133,-0.364571 0.79427,-0.649401 1.29883,-0.854492 0.50456,-0.205065 1.06282,-0.307604 1.67481,-0.307617 0.65103,1.3e-5 1.2272,0.0993 1.72851,0.297852 0.5013,0.19858 0.92285,0.48341 1.26465,0.854492 0.34179,0.371105 0.60221,0.820323 0.78125,1.347656 0.17903,0.527354 0.26855,1.116546 0.26856,1.767578 -1e-5,0.598966 -0.10744,1.25489 -0.32227,1.967774 -0.21485,0.712896 -0.5127,1.445317 -0.89355,2.197265 -0.38087,0.751957 -0.83172,1.502282 -1.35254,2.250977 -0.52084,0.748699 -1.0905,1.455079 -1.70899,2.11914 l -2.20703,0 c 0.40364,-0.455728 0.79101,-0.911457 1.16211,-1.367187 0.37109,-0.455727 0.71777,-0.906573 1.04004,-1.352539 0.32226,-0.44596 0.61197,-0.885413 0.86914,-1.318359 0.25716,-0.432939 0.46712,-0.847977 0.62988,-1.245118 -0.18881,0.05209 -0.40365,0.09603 -0.64453,0.131836 -0.24089,0.03581 -0.51107,0.05372 -0.81055,0.05371 -0.54687,5e-6 -1.05794,-0.07812 -1.5332,-0.234375 -0.47526,-0.156244 -0.88867,-0.388991 -1.24023,-0.698242 -0.35157,-0.309238 -0.62826,-0.68847 -0.83008,-1.137695 -0.20183,-0.449211 -0.30274,-0.966789 -0.30274,-1.552735 z" id="path4205"/></g><g id="text4048" style="font-size:20px;font-style:normal;font-variant:normal;font-weight:normal;font-stretch:normal;text-align:start;line-height:125%;letter-spacing:0px;word-spacing:0px;writing-mode:lr-tb;text-anchor:start;fill:#ffffff;fill-opacity:1;stroke:none;font-family:Estrangelo Edessa;-inkscape-font-specification:Estrangelo Edessa"><path d="m 205.27805,15.262066 c -1e-5,-0.253897 -0.0407,-0.486644 -0.12207,-0.698242 -0.0814,-0.211578 -0.19858,-0.392242 -0.35157,-0.541992 -0.153,-0.149729 -0.34017,-0.266917 -0.56152,-0.351563 -0.22136,-0.08462 -0.46876,-0.126942 -0.74219,-0.126953 -0.54688,1.1e-5 -0.98308,0.151378 -1.30859,0.454101 -0.32553,0.302745 -0.48829,0.737315 -0.48828,1.303711 -1e-5,0.253916 0.0504,0.494801 0.15136,0.722657 0.10091,0.227873 0.236,0.432951 0.40528,0.615234 0.16926,0.1823 0.36783,0.336922 0.5957,0.463867 0.22786,0.126961 0.46875,0.219734 0.72266,0.278321 0.30598,-0.08463 0.5664,-0.196933 0.78125,-0.336915 0.21483,-0.139966 0.39062,-0.301098 0.52734,-0.483398 0.13671,-0.182283 0.236,-0.384106 0.29785,-0.605469 0.0618,-0.221345 0.0928,-0.452464 0.0928,-0.693359 z m 0.41992,6.103516 c -1e-5,-0.240882 -0.0358,-0.481767 -0.10742,-0.722657 -0.0716,-0.240881 -0.1937,-0.467117 -0.36622,-0.678711 -0.17253,-0.211583 -0.40202,-0.40364 -0.68847,-0.576172 -0.28647,-0.17252 -0.64454,-0.307611 -1.07422,-0.405273 -0.31251,0.07813 -0.59571,0.192063 -0.84961,0.341797 -0.25391,0.149745 -0.47201,0.328781 -0.6543,0.537109 -0.18229,0.208338 -0.32389,0.441086 -0.4248,0.698242 -0.10092,0.257166 -0.15137,0.532231 -0.15137,0.825196 0,0.325524 0.0521,0.618492 0.15625,0.878906 0.10416,0.260419 0.24902,0.480145 0.43457,0.65918 0.18554,0.179038 0.40853,0.317384 0.66895,0.415039 0.26041,0.09766 0.54687,0.146485 0.85937,0.146484 0.35156,10e-7 0.66406,-0.05697 0.9375,-0.170898 0.27343,-0.113931 0.50293,-0.268553 0.68848,-0.463867 0.18554,-0.195311 0.32714,-0.421548 0.4248,-0.678711 0.0977,-0.257159 0.14648,-0.525713 0.14649,-0.805664 z m 1.90429,-0.01953 c 0,0.546878 -0.10417,1.043297 -0.3125,1.489258 -0.20834,0.445965 -0.49642,0.830079 -0.86425,1.152344 -0.36785,0.322266 -0.80242,0.571289 -1.30371,0.74707 -0.50131,0.175781 -1.04168,0.263672 -1.6211,0.263672 -0.54037,0 -1.05469,-0.07324 -1.54297,-0.219727 -0.48828,-0.146484 -0.91797,-0.36621 -1.28906,-0.659179 -0.37109,-0.292968 -0.66569,-0.660806 -0.88379,-1.103516 -0.2181,-0.442706 -0.32715,-0.960284 -0.32715,-1.552734 0,-0.774736 0.20671,-1.425777 0.62012,-1.953125 0.41341,-0.527338 0.98795,-0.963536 1.72363,-1.308594 -0.29297,-0.130202 -0.56315,-0.296217 -0.81054,-0.498047 -0.2474,-0.201815 -0.46062,-0.431307 -0.63965,-0.688476 -0.17904,-0.257154 -0.31901,-0.538729 -0.41992,-0.844727 -0.10092,-0.305981 -0.15137,-0.628246 -0.15137,-0.966797 0,-0.46874 0.0911,-0.898427 0.27344,-1.289062 0.18229,-0.390614 0.43782,-0.7259 0.7666,-1.00586 0.32877,-0.279935 0.72265,-0.498034 1.18164,-0.654297 0.45898,-0.156237 0.96516,-0.234362 1.51855,-0.234375 0.52734,1.3e-5 1.01562,0.07163 1.46485,0.214844 0.44921,0.143242 0.83821,0.351575 1.16699,0.625 0.32877,0.273449 0.58593,0.60548 0.77148,0.996094 0.18554,0.390635 0.27832,0.833343 0.27832,1.328125 0,0.33204 -0.0472,0.641285 -0.1416,0.927734 -0.0944,0.286467 -0.22462,0.553394 -0.39062,0.800782 -0.16603,0.247403 -0.36622,0.475267 -0.60059,0.683593 -0.23438,0.208341 -0.49154,0.397143 -0.77148,0.566407 0.80077,0.332037 1.38508,0.755214 1.75293,1.269531 0.36783,0.514328 0.55175,1.152348 0.55175,1.914062 z" id="path4208"/></g><g id="text4052" style="font-size:20px;font-style:normal;font-variant:normal;font-weight:normal;font-stretch:normal;text-align:start;line-height:125%;letter-spacing:0px;word-spacing:0px;writing-mode:lr-tb;text-anchor:start;fill:#ffffff;fill-opacity:1;stroke:none;font-family:Estrangelo Edessa;-inkscape-font-specification:Estrangelo Edessa"><path d="m 64.799164,58.58696 -1.875,0 0,-10.263672 c -0.104172,0.09116 -0.216476,0.187185 -0.336914,0.288086 -0.120447,0.100921 -0.236007,0.193695 -0.34668,0.27832 l -2.460937,1.757813 0,-1.865235 3.818359,-2.871093 1.201172,0 z" id="path4211"/><path d="m 75.52182,52.366257 c -7e-6,-1.699211 -0.19532,-2.970369 -0.585937,-3.813477 -0.390632,-0.843088 -0.963548,-1.264637 -1.71875,-1.264648 -0.807296,1.1e-5 -1.41602,0.42807 -1.826172,1.284179 -0.410159,0.856129 -0.615237,2.153329 -0.615235,3.891602 -2e-6,1.601567 0.20182,2.799482 0.605469,3.59375 0.403642,0.794273 0.99609,1.191408 1.777344,1.191406 0.774734,2e-6 1.362298,-0.403644 1.762695,-1.210937 0.400384,-0.807289 0.600579,-2.031246 0.600586,-3.671875 z m 1.914063,-0.136719 c -1e-5,1.022141 -0.09929,1.938481 -0.297852,2.749023 -0.198577,0.81055 -0.486662,1.495771 -0.864258,2.055664 -0.377612,0.559897 -0.838223,0.987957 -1.381836,1.28418 -0.543626,0.296224 -1.160487,0.444336 -1.850586,0.444336 -0.683598,0 -1.285811,-0.138346 -1.80664,-0.415039 -0.520836,-0.276692 -0.957034,-0.680338 -1.308594,-1.210937 -0.351564,-0.530597 -0.616863,-1.183266 -0.795898,-1.958008 -0.179038,-0.774736 -0.268556,-1.660151 -0.268555,-2.65625 -1e-6,-1.080722 0.08952,-2.03938 0.268555,-2.875977 0.179035,-0.836579 0.452472,-1.541331 0.820312,-2.114258 0.367836,-0.572905 0.828448,-1.007475 1.381836,-1.303711 0.553382,-0.296211 1.201167,-0.444323 1.943359,-0.444336 2.77343,1.3e-5 4.160147,2.148449 4.160157,6.445313 z" id="path4213"/></g><path d="m 20.47263,169.00285 -1.875,0 0,-10.26367 c -0.104172,0.0912 -0.216477,0.18719 -0.336915,0.28809 -0.120447,0.10092 -0.236006,0.19369 -0.346679,0.27832 l -2.460938,1.75781 0,-1.86523 3.81836,-2.8711 1.201172,0 z" id="path4216" style="font-size:20px;font-style:normal;font-variant:normal;font-weight:normal;font-stretch:normal;text-align:start;line-height:125%;letter-spacing:0px;word-spacing:0px;writing-mode:lr-tb;text-anchor:start;fill:#ffffff;fill-opacity:1;stroke:none;font-family:Estrangelo Edessa;-inkscape-font-specification:Estrangelo Edessa"/><path d="m 32.650364,164.92082 c -9e-6,0.66407 -0.120452,1.25977 -0.361328,1.78711 -0.240894,0.52735 -0.56967,0.97494 -0.986328,1.34277 -0.416674,0.36784 -0.898444,0.64779 -1.445313,0.83985 -0.54688,0.19206 -1.129562,0.28808 -1.748047,0.28808 -0.559899,0 -1.085615,-0.0586 -1.577148,-0.17578 -0.491539,-0.11718 -0.916343,-0.27669 -1.274414,-0.47851 l 0,-1.75781 c 0.175779,0.11718 0.37923,0.22949 0.610351,0.33691 0.231118,0.10742 0.472003,0.20182 0.722657,0.2832 0.250648,0.0814 0.501298,0.14812 0.751953,0.2002 0.250647,0.0521 0.486649,0.0781 0.708008,0.0781 0.403641,0 0.769851,-0.0651 1.098632,-0.19531 0.328771,-0.13021 0.610346,-0.3125 0.844727,-0.54687 0.234368,-0.23438 0.41666,-0.51433 0.546875,-0.83985 0.130201,-0.32552 0.195305,-0.68033 0.195312,-1.06445 -7e-6,-0.41666 -0.07488,-0.77962 -0.224609,-1.08887 -0.149746,-0.30924 -0.349941,-0.5664 -0.600586,-0.77148 -0.250657,-0.20508 -0.54037,-0.35644 -0.869141,-0.4541 -0.32878,-0.0976 -0.672205,-0.14323 -1.030273,-0.13672 -0.442712,0 -0.869144,0.0553 -1.279297,0.16601 -0.410159,0.11069 -0.777997,0.2474 -1.103515,0.41016 l -0.390625,-0.51758 0,-6.25977 6.835937,0 0,1.60157 -5.117187,0 0,3.25195 c 0.09765,-0.013 0.205074,-0.026 0.322265,-0.0391 0.117184,-0.013 0.239254,-0.0244 0.366211,-0.0342 0.126949,-0.01 0.252275,-0.0163 0.375977,-0.0195 0.123693,-0.003 0.23437,-0.005 0.332031,-0.005 0.618484,1e-5 1.1914,0.0846 1.71875,0.25391 0.527337,0.16928 0.981438,0.41505 1.362305,0.7373 0.380851,0.32228 0.678702,0.71941 0.893554,1.19141 0.214835,0.47201 0.322257,1.01075 0.322266,1.61621 z" id="path4218" style="font-size:20px;font-style:normal;font-variant:normal;font-weight:normal;font-stretch:normal;text-align:start;line-height:125%;letter-spacing:0px;word-spacing:0px;writing-mode:lr-tb;text-anchor:start;fill:#ffffff;fill-opacity:1;stroke:none;font-family:Estrangelo Edessa;-inkscape-font-specification:Estrangelo Edessa"/><g id="text4024" style="font-size:20px;font-style:normal;font-variant:normal;font-weight:normal;font-stretch:normal;text-align:start;line-height:125%;letter-spacing:0px;word-spacing:0px;writing-mode:lr-tb;text-anchor:start;fill:#ffffff;fill-opacity:1;stroke:none;font-family:Estrangelo Edessa;-inkscape-font-specification:Estrangelo Edessa"><path d="m 282.49966,367.32745 -1.875,0 0,-10.26367 c -0.10417,0.0912 -0.21647,0.18719 -0.33691,0.28809 -0.12045,0.10092 -0.23601,0.19369 -0.34668,0.27832 l -2.46094,1.75781 0,-1.86523 3.81836,-2.8711 1.20117,0 z" id="path4221"/><path d="m 291.73795,362.59113 0,-4.88282 c -1e-5,-0.0911 -1e-5,-0.19367 0,-0.30761 -1e-5,-0.11393 0.006,-0.23274 0.0195,-0.35645 -0.0326,0.0326 -0.0553,0.0667 -0.0684,0.10254 -0.013,0.0358 -0.0358,0.07 -0.0684,0.10254 -0.0977,0.0977 -0.23113,0.2474 -0.40039,0.44922 -0.16928,0.20183 -0.35645,0.43946 -0.56153,0.71289 -0.20508,0.27344 -0.42318,0.57618 -0.65429,0.9082 -0.23113,0.33204 -0.45574,0.68035 -0.67383,1.04492 -0.2181,0.36459 -0.42481,0.73569 -0.62012,1.11328 -0.19531,0.37761 -0.36458,0.74871 -0.50781,1.11329 z m 3.68164,1.4746 -1.81641,0 0,3.26172 -1.86523,0 0,-3.26172 -5.3418,0 -0.11719,-0.57617 c 0.0716,-0.41015 0.22624,-0.88215 0.46387,-1.41601 0.23763,-0.53385 0.52571,-1.09049 0.86426,-1.66992 0.33854,-0.57942 0.71126,-1.16211 1.11816,-1.74805 0.4069,-0.58593 0.8138,-1.13769 1.2207,-1.65527 0.4069,-0.51757 0.79752,-0.98144 1.17188,-1.39161 0.37434,-0.41014 0.70149,-0.72915 0.98144,-0.95703 l 1.50391,0 0,7.93946 1.81641,0 z" id="path4223"/></g></g></svg>